<svg xmlns="http://www.w3.org/2000/svg" viewBox="0 0 1260 600"><defs><style>.cls-1{fill:none;stroke:#14499a;stroke-miterlimit:10;stroke-width:6px;}.cls-2{fill:#f78f1e;}.cls-3{fill:#14499a;}</style></defs><title>layout-svg</title><g id="button-pesanan"><rect class="cls-1" x="35.18" y="33.34" width="1188.98" height="531.66" rx="50" ry="50"/><path class="cls-2" d="M682,190.88a31.87,31.87,0,0,1-2.12,12,23.21,23.21,0,0,1-6.17,8.82,27.2,27.2,0,0,1-9.94,5.45A46,46,0,0,1,649.9,219h-6.73v25.74a1.73,1.73,0,0,1-.41,1.12,2.83,2.83,0,0,1-1.34.81,13,13,0,0,1-2.49.5,42.19,42.19,0,0,1-7.95,0,13.07,13.07,0,0,1-2.52-.5,2.62,2.62,0,0,1-1.31-.81,1.82,1.82,0,0,1-.37-1.12V172.24a5.82,5.82,0,0,1,1.53-4.39,5.57,5.57,0,0,1,4-1.46h19q2.87,0,5.45.22a57.56,57.56,0,0,1,6.2.93,27.47,27.47,0,0,1,7.32,2.65,21.81,21.81,0,0,1,6.33,4.89,20.4,20.4,0,0,1,4,6.92A27,27,0,0,1,682,190.88Zm-17.14,1.18a14.48,14.48,0,0,0-1.5-7,10.32,10.32,0,0,0-3.68-4.05,12.19,12.19,0,0,0-4.58-1.65,35.16,35.16,0,0,0-5-.34h-7V206.4h7.35a17.78,17.78,0,0,0,6.58-1.06,11.24,11.24,0,0,0,4.33-3,12.82,12.82,0,0,0,2.55-4.55A18.31,18.31,0,0,0,664.85,192.06Z"/><path class="cls-2" d="M743.06,215.49a6,6,0,0,1-1.28,4.24,4.58,4.58,0,0,1-3.52,1.37H704.42a23.11,23.11,0,0,0,.84,6.45,12.31,12.31,0,0,0,2.68,4.92,11.67,11.67,0,0,0,4.74,3.08,20.27,20.27,0,0,0,6.95,1.06,39.11,39.11,0,0,0,7.23-.59,48,48,0,0,0,5.39-1.31q2.27-.72,3.77-1.31a7,7,0,0,1,2.43-.59,1.83,1.83,0,0,1,.93.22,1.62,1.62,0,0,1,.62.78,5.23,5.23,0,0,1,.34,1.59q.09,1,.09,2.59,0,1.37-.06,2.34a15,15,0,0,1-.19,1.65,4,4,0,0,1-.37,1.15,4.35,4.35,0,0,1-.65.9,7.57,7.57,0,0,1-2.21,1.18,34.94,34.94,0,0,1-4.61,1.46,63.26,63.26,0,0,1-6.42,1.25,53.43,53.43,0,0,1-7.73.53,40.89,40.89,0,0,1-13-1.87,23.12,23.12,0,0,1-9.32-5.67,23.58,23.58,0,0,1-5.58-9.6,45,45,0,0,1-1.84-13.59,43.15,43.15,0,0,1,1.93-13.37,28,28,0,0,1,5.61-10.1,24.13,24.13,0,0,1,8.94-6.33,34.5,34.5,0,0,1,23.81-.12,21.53,21.53,0,0,1,8.13,5.7,23,23,0,0,1,4.67,8.63,37.6,37.6,0,0,1,1.5,10.84ZM727.86,211q.19-6.6-2.65-10.38t-8.76-3.77a11.36,11.36,0,0,0-5.2,1.12,10.63,10.63,0,0,0-3.68,3,13.77,13.77,0,0,0-2.24,4.49,22.35,22.35,0,0,0-.9,5.52Z"/><path class="cls-2" d="M795.1,229.2a18.71,18.71,0,0,1-1.78,8.35,16.63,16.63,0,0,1-5,6,22.61,22.61,0,0,1-7.67,3.65,36.12,36.12,0,0,1-9.6,1.22,36.56,36.56,0,0,1-6-.47,36.12,36.12,0,0,1-5.08-1.18,26.45,26.45,0,0,1-3.74-1.46,9.22,9.22,0,0,1-2.18-1.4,4.35,4.35,0,0,1-1.06-2.06,17.21,17.21,0,0,1-.37-4.14,26.47,26.47,0,0,1,.13-2.9,7.41,7.41,0,0,1,.37-1.75,1.64,1.64,0,0,1,.62-.87,1.83,1.83,0,0,1,.93-.22,4.66,4.66,0,0,1,2,.78q1.34.78,3.33,1.71a35.26,35.26,0,0,0,4.64,1.75,20.54,20.54,0,0,0,6,.81,14.8,14.8,0,0,0,3.77-.44,9.49,9.49,0,0,0,2.87-1.25,5.29,5.29,0,0,0,1.84-2.06,6.35,6.35,0,0,0,.62-2.87,4.76,4.76,0,0,0-1.15-3.21,10.23,10.23,0,0,0-3.05-2.34,35.48,35.48,0,0,0-4.3-1.87q-2.4-.87-4.92-1.93a45.06,45.06,0,0,1-4.92-2.43,18.72,18.72,0,0,1-4.3-3.37,15.28,15.28,0,0,1-3.05-4.8,17.65,17.65,0,0,1-1.15-6.73,17.08,17.08,0,0,1,1.56-7.32,15.92,15.92,0,0,1,4.49-5.7,21.26,21.26,0,0,1,7.13-3.68,31.74,31.74,0,0,1,9.44-1.31,33.82,33.82,0,0,1,5.08.37,37.09,37.09,0,0,1,4.46.93,21.37,21.37,0,0,1,3.37,1.21,11.19,11.19,0,0,1,2,1.12,3.13,3.13,0,0,1,.84.93,4,4,0,0,1,.37,1.12q.12.65.22,1.62t.09,2.4q0,1.68-.09,2.74a7.22,7.22,0,0,1-.31,1.68,1.49,1.49,0,0,1-.59.84,1.69,1.69,0,0,1-.87.22,4.26,4.26,0,0,1-1.75-.65,31.22,31.22,0,0,0-3-1.4,34.86,34.86,0,0,0-4.11-1.4,19.78,19.78,0,0,0-5.33-.65,13.75,13.75,0,0,0-3.68.44,7,7,0,0,0-2.55,1.25,5.24,5.24,0,0,0-1.5,1.9,5.55,5.55,0,0,0-.5,2.34,4.65,4.65,0,0,0,1.18,3.24,10.85,10.85,0,0,0,3.12,2.31,35.14,35.14,0,0,0,4.39,1.87q2.46.87,5,1.9a45.65,45.65,0,0,1,5,2.4,18.87,18.87,0,0,1,4.39,3.37,15.58,15.58,0,0,1,3.12,4.77A16.68,16.68,0,0,1,795.1,229.2Z"/><path class="cls-2" d="M854.24,245.1a1.66,1.66,0,0,1-.62,1.37,4.28,4.28,0,0,1-2,.72,26.76,26.76,0,0,1-4,.22,27.11,27.11,0,0,1-4.08-.22,3.51,3.51,0,0,1-1.81-.72,1.79,1.79,0,0,1-.53-1.37v-4.42a25.28,25.28,0,0,1-7.82,5.73,22.73,22.73,0,0,1-9.75,2.06,27.28,27.28,0,0,1-8.13-1.15,18.29,18.29,0,0,1-6.42-3.43,15.41,15.41,0,0,1-4.21-5.64,19.18,19.18,0,0,1-1.5-7.85,17.77,17.77,0,0,1,1.9-8.44A15.46,15.46,0,0,1,811,216a28.25,28.25,0,0,1,9.38-3.46,67.07,67.07,0,0,1,13-1.12h5.42v-3.37a17.71,17.71,0,0,0-.53-4.58,7.64,7.64,0,0,0-1.74-3.27,7.21,7.21,0,0,0-3.24-1.93,17.3,17.3,0,0,0-5-.62,25.82,25.82,0,0,0-7,.87,40.26,40.26,0,0,0-5.45,1.93q-2.37,1.06-4,1.93a5.78,5.78,0,0,1-2.59.87,1.85,1.85,0,0,1-1.21-.44,3.16,3.16,0,0,1-.87-1.25,8.57,8.57,0,0,1-.53-2,16.92,16.92,0,0,1-.19-2.62,11.81,11.81,0,0,1,.31-3.05,4.69,4.69,0,0,1,1.18-2,11.64,11.64,0,0,1,3.05-2,35.89,35.89,0,0,1,5.11-2,47.23,47.23,0,0,1,6.39-1.53,42.24,42.24,0,0,1,7.14-.59A42.67,42.67,0,0,1,840.87,187a18.89,18.89,0,0,1,7.63,3.93,15.27,15.27,0,0,1,4.36,6.82,31.92,31.92,0,0,1,1.37,9.91Zm-15.39-23.81h-6a32.12,32.12,0,0,0-6.48.56,12.42,12.42,0,0,0-4.36,1.68,6.93,6.93,0,0,0-2.46,2.71,8.18,8.18,0,0,0-.78,3.65,7,7,0,0,0,2.21,5.48,8.83,8.83,0,0,0,6.14,2,11.5,11.5,0,0,0,6.08-1.68,25.22,25.22,0,0,0,5.64-4.92Z"/><path class="cls-2" d="M923,244.91a1.7,1.7,0,0,1-.37,1.09,2.74,2.74,0,0,1-1.25.78,10.59,10.59,0,0,1-2.4.47q-1.53.16-3.77.16t-3.83-.16a10.57,10.57,0,0,1-2.4-.47,2.74,2.74,0,0,1-1.25-.78,1.7,1.7,0,0,1-.37-1.09V213.19a26.77,26.77,0,0,0-.59-6.36,12.56,12.56,0,0,0-1.71-4,7.63,7.63,0,0,0-2.9-2.55,9,9,0,0,0-4.14-.9,10.39,10.39,0,0,0-6,2.18,32.68,32.68,0,0,0-6.36,6.36v37a1.7,1.7,0,0,1-.37,1.09,2.75,2.75,0,0,1-1.28.78,11.09,11.09,0,0,1-2.4.47,46.32,46.32,0,0,1-7.6,0,11.07,11.07,0,0,1-2.4-.47,2.75,2.75,0,0,1-1.28-.78,1.69,1.69,0,0,1-.37-1.09V189.32a1.91,1.91,0,0,1,.31-1.09,2.28,2.28,0,0,1,1.12-.78,9,9,0,0,1,2.09-.47,27.61,27.61,0,0,1,3.21-.16,29.14,29.14,0,0,1,3.3.16,7.55,7.55,0,0,1,2,.47,2.3,2.3,0,0,1,1,.78,1.93,1.93,0,0,1,.31,1.09v6.42a35.29,35.29,0,0,1,9.38-7.48,21.18,21.18,0,0,1,9.94-2.49,22,22,0,0,1,9.57,1.87,16.77,16.77,0,0,1,6.29,5.08,20.64,20.64,0,0,1,3.46,7.51A43.8,43.8,0,0,1,923,210.57Z"/><path class="cls-2" d="M985.73,245.1a1.66,1.66,0,0,1-.62,1.37,4.28,4.28,0,0,1-2,.72,26.76,26.76,0,0,1-4,.22,27.11,27.11,0,0,1-4.08-.22,3.51,3.51,0,0,1-1.81-.72,1.79,1.79,0,0,1-.53-1.37v-4.42A25.28,25.28,0,0,1,965,246.4a22.73,22.73,0,0,1-9.75,2.06,27.28,27.28,0,0,1-8.13-1.15,18.29,18.29,0,0,1-6.42-3.43,15.41,15.41,0,0,1-4.21-5.64,19.18,19.18,0,0,1-1.5-7.85,17.77,17.77,0,0,1,1.9-8.44,15.46,15.46,0,0,1,5.67-5.92,28.25,28.25,0,0,1,9.38-3.46,67.07,67.07,0,0,1,13-1.12h5.42v-3.37a17.71,17.71,0,0,0-.53-4.58,7.64,7.64,0,0,0-1.74-3.27,7.21,7.21,0,0,0-3.24-1.93,17.3,17.3,0,0,0-5-.62,25.82,25.82,0,0,0-7,.87,40.26,40.26,0,0,0-5.45,1.93q-2.37,1.06-4,1.93a5.78,5.78,0,0,1-2.59.87,1.85,1.85,0,0,1-1.21-.44,3.16,3.16,0,0,1-.87-1.25,8.57,8.57,0,0,1-.53-2A16.92,16.92,0,0,1,938,197a11.81,11.81,0,0,1,.31-3.05,4.69,4.69,0,0,1,1.18-2,11.64,11.64,0,0,1,3.05-2,35.89,35.89,0,0,1,5.11-2,47.23,47.23,0,0,1,6.39-1.53,42.24,42.24,0,0,1,7.14-.59A42.67,42.67,0,0,1,972.37,187,18.89,18.89,0,0,1,980,191a15.27,15.27,0,0,1,4.36,6.82,31.92,31.92,0,0,1,1.37,9.91Zm-15.39-23.81h-6a32.12,32.12,0,0,0-6.48.56,12.42,12.42,0,0,0-4.36,1.68,6.93,6.93,0,0,0-2.46,2.71,8.18,8.18,0,0,0-.78,3.65,7,7,0,0,0,2.21,5.48,8.83,8.83,0,0,0,6.14,2,11.5,11.5,0,0,0,6.08-1.68,25.22,25.22,0,0,0,5.64-4.92Z"/><path class="cls-2" d="M1054.47,244.91a1.7,1.7,0,0,1-.37,1.09,2.74,2.74,0,0,1-1.25.78,10.59,10.59,0,0,1-2.4.47q-1.53.16-3.77.16t-3.83-.16a10.57,10.57,0,0,1-2.4-.47,2.74,2.74,0,0,1-1.25-.78,1.7,1.7,0,0,1-.37-1.09V213.19a26.77,26.77,0,0,0-.59-6.36,12.56,12.56,0,0,0-1.71-4,7.63,7.63,0,0,0-2.9-2.55,9,9,0,0,0-4.14-.9,10.39,10.39,0,0,0-6,2.18,32.68,32.68,0,0,0-6.36,6.36v37a1.7,1.7,0,0,1-.37,1.09,2.75,2.75,0,0,1-1.28.78,11.09,11.09,0,0,1-2.4.47,46.32,46.32,0,0,1-7.6,0,11.07,11.07,0,0,1-2.4-.47,2.75,2.75,0,0,1-1.28-.78,1.69,1.69,0,0,1-.37-1.09V189.32a1.91,1.91,0,0,1,.31-1.09,2.28,2.28,0,0,1,1.12-.78,9,9,0,0,1,2.09-.47,27.61,27.61,0,0,1,3.21-.16,29.14,29.14,0,0,1,3.3.16,7.55,7.55,0,0,1,2,.47,2.3,2.3,0,0,1,1,.78,1.93,1.93,0,0,1,.31,1.09v6.42a35.29,35.29,0,0,1,9.38-7.48,21.18,21.18,0,0,1,9.94-2.49,22,22,0,0,1,9.57,1.87,16.77,16.77,0,0,1,6.29,5.08,20.64,20.64,0,0,1,3.46,7.51,43.8,43.8,0,0,1,1.06,10.34Z"/><path class="cls-3" d="M726.88,397a47.93,47.93,0,0,1-4.56,21.47A44.47,44.47,0,0,1,710,433.86a53.8,53.8,0,0,1-18.23,9.29,77.55,77.55,0,0,1-22.31,3.12,79.55,79.55,0,0,1-14.93-1.32,84.65,84.65,0,0,1-12.17-3.18,53,53,0,0,1-8.81-3.9,25.35,25.35,0,0,1-5.1-3.6,9,9,0,0,1-2.22-4.5,41,41,0,0,1-.66-8.45q0-3.72.24-6.24a18,18,0,0,1,.78-4.08,4.48,4.48,0,0,1,1.44-2.22,3.46,3.46,0,0,1,2.1-.66q1.68,0,4.74,2a83.31,83.31,0,0,0,7.85,4.38,70.87,70.87,0,0,0,11.45,4.38,54.2,54.2,0,0,0,15.41,2,35.58,35.58,0,0,0,10.31-1.38,23.05,23.05,0,0,0,7.73-3.9,16.54,16.54,0,0,0,4.86-6.24,19.89,19.89,0,0,0,1.68-8.28,14.5,14.5,0,0,0-2.88-9.05,28.6,28.6,0,0,0-7.5-6.72,78,78,0,0,0-10.49-5.52q-5.88-2.58-12.11-5.46A110.29,110.29,0,0,1,649,367.78,49,49,0,0,1,638.55,359a41.23,41.23,0,0,1-7.5-12.05,43.52,43.52,0,0,1-2.88-16.67,44.09,44.09,0,0,1,4.14-19.61,40.21,40.21,0,0,1,11.15-14A47.48,47.48,0,0,1,660,288.33a72.4,72.4,0,0,1,20.21-2.76,73.4,73.4,0,0,1,11,.84,75.64,75.64,0,0,1,10.31,2.28,57.77,57.77,0,0,1,8.51,3.24,20,20,0,0,1,4.92,3,8.71,8.71,0,0,1,1.62,2,9.68,9.68,0,0,1,.72,2.22,23.36,23.36,0,0,1,.42,3.48q.12,2.1.12,5.22,0,3.48-.18,5.88a21.85,21.85,0,0,1-.6,4,4.71,4.71,0,0,1-1.2,2.28,3,3,0,0,1-2.1.72,10,10,0,0,1-4.2-1.68q-2.88-1.68-7.08-3.66a67.41,67.41,0,0,0-9.71-3.6,42.86,42.86,0,0,0-12.11-1.62,28.92,28.92,0,0,0-9,1.26,18.6,18.6,0,0,0-6.42,3.48,13.73,13.73,0,0,0-3.84,5.34,17.45,17.45,0,0,0-1.26,6.6,14.52,14.52,0,0,0,2.82,8.93,27,27,0,0,0,7.55,6.72A81.11,81.11,0,0,0,681.31,348q6,2.58,12.23,5.46A120.55,120.55,0,0,1,705.77,360a49.22,49.22,0,0,1,10.67,8.75,40.82,40.82,0,0,1,7.56,12A42,42,0,0,1,726.88,397Z"/><path class="cls-3" d="M840.33,439.79a3.19,3.19,0,0,1-1.2,2.64,8.23,8.23,0,0,1-3.78,1.38,51.29,51.29,0,0,1-7.62.42,52,52,0,0,1-7.86-.42,6.76,6.76,0,0,1-3.48-1.38,3.45,3.45,0,0,1-1-2.64v-8.51a48.61,48.61,0,0,1-15,11,43.73,43.73,0,0,1-18.77,4A52.51,52.51,0,0,1,765.91,444a35.22,35.22,0,0,1-12.35-6.6,29.68,29.68,0,0,1-8.09-10.85,36.92,36.92,0,0,1-2.88-15.11,34.2,34.2,0,0,1,3.66-16.25,29.75,29.75,0,0,1,10.91-11.39,54.32,54.32,0,0,1,18-6.66A128.92,128.92,0,0,1,800.27,375h10.43v-6.48a34.06,34.06,0,0,0-1-8.81,14.7,14.7,0,0,0-3.36-6.3,13.88,13.88,0,0,0-6.24-3.72,33.32,33.32,0,0,0-9.65-1.2,49.67,49.67,0,0,0-13.49,1.68,77.71,77.71,0,0,0-10.49,3.72q-4.56,2-7.61,3.72a11.12,11.12,0,0,1-5,1.68,3.57,3.57,0,0,1-2.34-.84,6.09,6.09,0,0,1-1.68-2.4,16.49,16.49,0,0,1-1-3.84,32.34,32.34,0,0,1-.36-5,22.82,22.82,0,0,1,.6-5.88,9,9,0,0,1,2.28-3.9,22.45,22.45,0,0,1,5.88-3.84,69.09,69.09,0,0,1,9.83-3.9,91.12,91.12,0,0,1,12.29-2.94,90.33,90.33,0,0,1,35.26,1.32,36.3,36.3,0,0,1,14.69,7.55,29.38,29.38,0,0,1,8.4,13.13,61.43,61.43,0,0,1,2.64,19.07ZM810.71,394H799.19a61.84,61.84,0,0,0-12.47,1.08,23.9,23.9,0,0,0-8.39,3.24,13.33,13.33,0,0,0-4.74,5.22,15.72,15.72,0,0,0-1.5,7q0,6.72,4.26,10.55t11.81,3.84a22.12,22.12,0,0,0,11.69-3.24,48.51,48.51,0,0,0,10.85-9.47Z"/><path class="cls-3" d="M928,443.51l-13,37.9q-1.08,3-5.88,4.32t-14,1.32a55.68,55.68,0,0,1-7.68-.42,10.76,10.76,0,0,1-4.32-1.38,3.15,3.15,0,0,1-1.56-2.4,7.7,7.7,0,0,1,.72-3.48l14.27-35.86a8.12,8.12,0,0,1-2.82-2.22,10.32,10.32,0,0,1-1.86-3.18l-36.82-98.34a20.28,20.28,0,0,1-1.56-6.42,4.38,4.38,0,0,1,1.44-3.48,9.46,9.46,0,0,1,4.86-1.74,68.22,68.22,0,0,1,9.05-.48q5.15,0,8.16.18a14.45,14.45,0,0,1,4.68.9,5.09,5.09,0,0,1,2.52,2.22,22.53,22.53,0,0,1,1.68,4.26l25.18,71.59h.36l23-73q.72-3.12,1.86-4.14a7.81,7.81,0,0,1,3.78-1.5,59.93,59.93,0,0,1,9.23-.48,63.7,63.7,0,0,1,8.57.48,10.26,10.26,0,0,1,5,1.8,4.33,4.33,0,0,1,1.62,3.54,17.48,17.48,0,0,1-1,5.22Z"/><path class="cls-3" d="M1069.74,439.79a3.19,3.19,0,0,1-1.2,2.64,8.23,8.23,0,0,1-3.78,1.38,51.29,51.29,0,0,1-7.62.42,52,52,0,0,1-7.86-.42,6.76,6.76,0,0,1-3.48-1.38,3.45,3.45,0,0,1-1-2.64v-8.51a48.61,48.61,0,0,1-15,11,43.73,43.73,0,0,1-18.77,4A52.51,52.51,0,0,1,995.33,444a35.22,35.22,0,0,1-12.35-6.6,29.68,29.68,0,0,1-8.09-10.85A36.92,36.92,0,0,1,972,411.49a34.2,34.2,0,0,1,3.66-16.25,29.75,29.75,0,0,1,10.91-11.39,54.32,54.32,0,0,1,18-6.66,128.92,128.92,0,0,1,25.06-2.16h10.43v-6.48a34.06,34.06,0,0,0-1-8.81,14.7,14.7,0,0,0-3.36-6.3,13.88,13.88,0,0,0-6.24-3.72,33.32,33.32,0,0,0-9.65-1.2,49.67,49.67,0,0,0-13.49,1.68,77.71,77.71,0,0,0-10.49,3.72q-4.56,2-7.61,3.72a11.12,11.12,0,0,1-5,1.68,3.57,3.57,0,0,1-2.34-.84,6.09,6.09,0,0,1-1.68-2.4,16.49,16.49,0,0,1-1-3.84,32.34,32.34,0,0,1-.36-5,22.82,22.82,0,0,1,.6-5.88,9,9,0,0,1,2.28-3.9,22.45,22.45,0,0,1,5.88-3.84,69.09,69.09,0,0,1,9.83-3.9,91.12,91.12,0,0,1,12.29-2.94,90.33,90.33,0,0,1,35.26,1.32,36.3,36.3,0,0,1,14.69,7.55,29.38,29.38,0,0,1,8.4,13.13,61.43,61.43,0,0,1,2.64,19.07ZM1040.12,394h-11.51a61.84,61.84,0,0,0-12.47,1.08,23.9,23.9,0,0,0-8.39,3.24,13.33,13.33,0,0,0-4.74,5.22,15.72,15.72,0,0,0-1.5,7q0,6.72,4.26,10.55t11.81,3.84a22.12,22.12,0,0,0,11.69-3.24,48.51,48.51,0,0,0,10.85-9.47Z"/><path class="cls-3" d="M453.09,482.3H188.85a5.68,5.68,0,0,1-5.68-5.92l11.12-280.46a5.68,5.68,0,0,1,5.68-5.46H442a5.68,5.68,0,0,1,5.68,5.46l11.12,280.46a5.68,5.68,0,0,1-5.68,5.92ZM194.77,470.93h252.4L436.51,201.84H205.44Z"/><path class="cls-3" d="M365.79,233.88a5.69,5.69,0,0,1-5.69-5.69V175.7a39.12,39.12,0,0,0-78.25,0v52.49a5.69,5.69,0,0,1-11.38,0V175.7a50.5,50.5,0,0,1,101,0v52.49A5.69,5.69,0,0,1,365.79,233.88Z"/><path class="cls-3" d="M293.77,233.88H258.55a5.69,5.69,0,1,1,0-11.38h35.21a5.69,5.69,0,0,1,0,11.38Z"/><path class="cls-3" d="M383.39,233.88H348.18a5.69,5.69,0,1,1,0-11.38h35.21a5.69,5.69,0,0,1,0,11.38Z"/><rect class="cls-3" x="230.85" y="362.09" width="17.07" height="78.3"/><rect class="cls-3" x="266.33" y="362.09" width="11.38" height="62.09"/><rect class="cls-3" x="298.97" y="362.09" width="11.38" height="62.09"/><rect class="cls-3" x="331.6" y="362.09" width="11.38" height="62.09"/><rect class="cls-3" x="361.39" y="362.09" width="17.07" height="78.3"/><rect class="cls-3" x="396.87" y="362.09" width="11.38" height="78.3"/><rect class="cls-3" x="222.01" y="262.34" width="14.22" height="11.38"/><rect class="cls-3" x="259.74" y="262.34" width="23.5" height="11.38"/><rect class="cls-3" x="306.75" y="262.34" width="14.22" height="11.38"/></g></svg>