<svg xmlns="http://www.w3.org/2000/svg" viewBox="0 0 1260 600"><defs><style>.cls-1{fill:none;stroke:#14499a;stroke-width:6px;}.cls-1,.cls-2{stroke-miterlimit:10;}.cls-2,.cls-4{fill:#14499a;}.cls-2{stroke:blue;}.cls-3{fill:#f78f1e;}</style></defs><title>layout-svg</title><g id="button-scan"><rect class="cls-1" x="31.96" y="31.42" width="1198.04" height="535.71" rx="50" ry="50"/><rect class="cls-2" x="175.18" y="161.18" width="12.89" height="214.61"/><rect class="cls-2" x="206.91" y="161.18" width="19.34" height="214.61"/><rect class="cls-2" x="245.08" y="161.18" width="12.89" height="195.13"/><rect class="cls-2" x="280.03" y="161.18" width="12.89" height="195.13"/><rect class="cls-2" x="311.76" y="161.18" width="19.34" height="130.65"/><rect class="cls-2" x="349.93" y="161.18" width="12.89" height="130.65"/><rect class="cls-2" x="384.88" y="161.18" width="12.89" height="130.65"/><rect class="cls-2" x="416.61" y="161.18" width="19.34" height="130.65"/><rect class="cls-2" x="454.78" y="161.18" width="12.89" height="130.65"/><rect class="cls-2" x="489.73" y="161.18" width="12.89" height="130.65"/><rect class="cls-2" x="521.45" y="161.18" width="19.34" height="130.65"/><rect class="cls-2" x="471.3" y="432.77" width="19.34" height="12.89"/><rect class="cls-2" x="410.07" y="432.77" width="40.83" height="12.89"/><rect class="cls-2" x="370.31" y="432.77" width="19.34" height="12.89"/><path class="cls-2" d="M560.17,445.66H490.64V432.77h69.52a9.72,9.72,0,0,0,9.71-9.71V308a9.72,9.72,0,0,0-9.71-9.71H325.73A9.72,9.72,0,0,0,316,308V423.06a9.72,9.72,0,0,0,9.71,9.71h44.58v12.89H325.73a22.63,22.63,0,0,1-22.6-22.6V308a22.63,22.63,0,0,1,22.6-22.6H560.17a22.63,22.63,0,0,1,22.6,22.6V423.06A22.63,22.63,0,0,1,560.17,445.66Z"/><rect class="cls-2" x="334.57" y="291.83" width="12.89" height="147.39"/><rect class="cls-2" x="530.55" y="291.83" width="12.89" height="147.39"/><path class="cls-2" d="M555.24,393.38a6.45,6.45,0,0,1-6.45-6.45V344.12a6.45,6.45,0,0,1,12.89,0v42.81A6.45,6.45,0,0,1,555.24,393.38Z"/><rect class="cls-2" x="384.88" y="314.17" width="12.89" height="42.14"/><rect class="cls-2" x="416.61" y="314.17" width="19.34" height="42.14"/><rect class="cls-2" x="454.78" y="314.17" width="12.89" height="42.14"/><rect class="cls-2" x="489.73" y="314.17" width="12.89" height="42.14"/><path class="cls-3" d="M774.09,269.95q0,12.94-4.82,22.71A47.07,47.07,0,0,1,756.19,309a56.92,56.92,0,0,1-19.29,9.83,82.06,82.06,0,0,1-23.6,3.3,84.2,84.2,0,0,1-15.8-1.4,89.71,89.71,0,0,1-12.88-3.36,56.17,56.17,0,0,1-9.33-4.12,26.87,26.87,0,0,1-5.39-3.81,9.49,9.49,0,0,1-2.35-4.76,43.43,43.43,0,0,1-.7-8.95q0-3.93.25-6.6a19,19,0,0,1,.83-4.31,4.75,4.75,0,0,1,1.52-2.35,3.66,3.66,0,0,1,2.22-.7q1.78,0,5,2.09a88.26,88.26,0,0,0,8.31,4.63,75,75,0,0,0,12.12,4.63,57.36,57.36,0,0,0,16.31,2.09,37.63,37.63,0,0,0,10.91-1.46,24.4,24.4,0,0,0,8.19-4.12,17.49,17.49,0,0,0,5.14-6.6,21,21,0,0,0,1.78-8.76,15.35,15.35,0,0,0-3-9.58,30.25,30.25,0,0,0-7.93-7.11,82.57,82.57,0,0,0-11.1-5.84Q711.15,249,704.55,246A116.56,116.56,0,0,1,691.73,239a51.84,51.84,0,0,1-11.1-9.26A43.64,43.64,0,0,1,672.7,217a46,46,0,0,1-3-17.64A46.66,46.66,0,0,1,674,178.65a42.56,42.56,0,0,1,11.8-14.85A50.24,50.24,0,0,1,703.34,155a76.62,76.62,0,0,1,21.38-2.92,77.7,77.7,0,0,1,11.67.89,79.9,79.9,0,0,1,10.91,2.41,61,61,0,0,1,9,3.43,21.16,21.16,0,0,1,5.2,3.17,9.22,9.22,0,0,1,1.71,2.16,10.31,10.31,0,0,1,.76,2.35,24.73,24.73,0,0,1,.44,3.68q.12,2.22.13,5.52,0,3.68-.19,6.22a23.25,23.25,0,0,1-.63,4.19,5,5,0,0,1-1.27,2.41,3.15,3.15,0,0,1-2.22.76q-1.4,0-4.44-1.78t-7.49-3.87A71.44,71.44,0,0,0,738,179.79a45.39,45.39,0,0,0-12.82-1.71,30.59,30.59,0,0,0-9.52,1.33,19.66,19.66,0,0,0-6.79,3.68,14.52,14.52,0,0,0-4.06,5.65,18.46,18.46,0,0,0-1.33,7,15.36,15.36,0,0,0,3,9.45,28.55,28.55,0,0,0,8,7.11,85.63,85.63,0,0,0,11.36,5.84q6.34,2.73,12.94,5.77a127.67,127.67,0,0,1,12.94,6.92A52,52,0,0,1,763,240.06a43.17,43.17,0,0,1,8,12.69A44.45,44.45,0,0,1,774.09,269.95Z"/><path class="cls-3" d="M883.35,296.85q0,3.3-.19,5.52a32.64,32.64,0,0,1-.51,3.74,11.65,11.65,0,0,1-.76,2.47,9.21,9.21,0,0,1-2,2.41,27.92,27.92,0,0,1-5.2,3.55,51.35,51.35,0,0,1-8.37,3.74A68.14,68.14,0,0,1,856.13,321a62.72,62.72,0,0,1-11.36,1,61.67,61.67,0,0,1-23.16-4.06,43.44,43.44,0,0,1-16.94-12,52.72,52.72,0,0,1-10.34-19.35,89.48,89.48,0,0,1-3.49-26.14q0-17,4.25-29.38A56.17,56.17,0,0,1,807,210.56a47.35,47.35,0,0,1,18-12.06,64.13,64.13,0,0,1,22.84-3.93,55.72,55.72,0,0,1,10,.89,57.83,57.83,0,0,1,9.14,2.41,49,49,0,0,1,7.61,3.43,23.37,23.37,0,0,1,4.76,3.3,13.36,13.36,0,0,1,2,2.35,8,8,0,0,1,.89,2.47,32.66,32.66,0,0,1,.51,3.74q.19,2.22.19,5.39,0,7.36-1.27,10.34t-3.3,3a7.8,7.8,0,0,1-4.57-1.78q-2.41-1.78-5.71-3.93a42.78,42.78,0,0,0-7.87-3.93,30.12,30.12,0,0,0-10.91-1.78q-12.44,0-19,9.58t-6.6,28.11a70.45,70.45,0,0,0,1.65,16.12,34.29,34.29,0,0,0,4.89,11.67,20.58,20.58,0,0,0,8.12,7,25.92,25.92,0,0,0,11.36,2.35,29.64,29.64,0,0,0,11.36-2,46.16,46.16,0,0,0,8.31-4.38q3.55-2.41,6-4.38t4.06-2a2.88,2.88,0,0,1,1.9.63,4.5,4.5,0,0,1,1.21,2.35,29.07,29.07,0,0,1,.7,4.38Q883.35,292.66,883.35,296.85Z"/><path class="cls-3" d="M1001.36,315.25a3.38,3.38,0,0,1-1.27,2.79,8.7,8.7,0,0,1-4,1.46,54.3,54.3,0,0,1-8.06.44,55.07,55.07,0,0,1-8.31-.44A7.14,7.14,0,0,1,976,318a3.64,3.64,0,0,1-1.08-2.79v-9A51.43,51.43,0,0,1,959,317.92a46.27,46.27,0,0,1-19.86,4.19,55.57,55.57,0,0,1-16.56-2.35,37.25,37.25,0,0,1-13.07-7A31.4,31.4,0,0,1,901,301.29a39.07,39.07,0,0,1-3-16,36.19,36.19,0,0,1,3.87-17.19,31.47,31.47,0,0,1,11.55-12.06,57.47,57.47,0,0,1,19.1-7A136.44,136.44,0,0,1,959,246.73h11v-6.85a36.06,36.06,0,0,0-1.08-9.33,15.55,15.55,0,0,0-3.55-6.66,14.68,14.68,0,0,0-6.6-3.93,35.24,35.24,0,0,0-10.21-1.27,52.55,52.55,0,0,0-14.28,1.78,82.09,82.09,0,0,0-11.1,3.93q-4.82,2.16-8.06,3.93a11.77,11.77,0,0,1-5.27,1.78,3.77,3.77,0,0,1-2.47-.89,6.44,6.44,0,0,1-1.78-2.54,17.48,17.48,0,0,1-1.08-4.06,34.27,34.27,0,0,1-.38-5.33,24.14,24.14,0,0,1,.63-6.22,9.56,9.56,0,0,1,2.41-4.12,23.74,23.74,0,0,1,6.22-4.06,73.17,73.17,0,0,1,10.41-4.12,96.33,96.33,0,0,1,13-3.11,95.62,95.62,0,0,1,37.31,1.4,38.45,38.45,0,0,1,15.54,8,31.1,31.1,0,0,1,8.88,13.9,65,65,0,0,1,2.79,20.18ZM970,266.78H957.84a65.47,65.47,0,0,0-13.2,1.14,25.3,25.3,0,0,0-8.88,3.43,14.11,14.11,0,0,0-5,5.52,16.63,16.63,0,0,0-1.59,7.42q0,7.11,4.5,11.17t12.5,4.06a23.4,23.4,0,0,0,12.37-3.43,51.32,51.32,0,0,0,11.48-10Z"/><path class="cls-3" d="M1141.33,314.87a3.45,3.45,0,0,1-.76,2.22,5.58,5.58,0,0,1-2.54,1.59,21.6,21.6,0,0,1-4.89,1q-3.11.31-7.68.32t-7.8-.32a21.56,21.56,0,0,1-4.89-1,5.57,5.57,0,0,1-2.54-1.59,3.45,3.45,0,0,1-.76-2.22V250.28a54.53,54.53,0,0,0-1.21-12.94,25.54,25.54,0,0,0-3.49-8.06,15.55,15.55,0,0,0-5.9-5.2,18.39,18.39,0,0,0-8.44-1.84q-6.09,0-12.31,4.44a66.54,66.54,0,0,0-12.94,12.94v75.25a3.45,3.45,0,0,1-.76,2.22,5.6,5.6,0,0,1-2.6,1.59,22.6,22.6,0,0,1-4.88,1q-3,.31-7.74.32t-7.74-.32a22.6,22.6,0,0,1-4.89-1,5.58,5.58,0,0,1-2.6-1.59,3.45,3.45,0,0,1-.76-2.22V201.68a3.9,3.9,0,0,1,.63-2.22,4.65,4.65,0,0,1,2.28-1.59,18.25,18.25,0,0,1,4.25-1,55.79,55.79,0,0,1,6.54-.32,58.91,58.91,0,0,1,6.73.32,15.3,15.3,0,0,1,4.12,1,4.68,4.68,0,0,1,2.09,1.59,3.92,3.92,0,0,1,.63,2.22v13.07q9.39-10.15,19.1-15.23a43.14,43.14,0,0,1,20.24-5.08q11.55,0,19.48,3.81a34.11,34.11,0,0,1,12.82,10.34,42,42,0,0,1,7,15.29,89.2,89.2,0,0,1,2.16,21.06Z"/><path class="cls-4" d="M736.38,421.23a27.88,27.88,0,0,1-1.37,9,24,24,0,0,1-3.77,7.12,24.37,24.37,0,0,1-5.75,5.32,33.55,33.55,0,0,1-7.37,3.67,45.42,45.42,0,0,1-8.59,2.12,69,69,0,0,1-10.17.68H674.61a5.88,5.88,0,0,1-4-1.4q-1.62-1.4-1.62-4.57V362q0-3.16,1.62-4.57a5.88,5.88,0,0,1,4-1.4H698a62.5,62.5,0,0,1,14.49,1.44,28.53,28.53,0,0,1,10,4.35,19.28,19.28,0,0,1,6.22,7.37,23.88,23.88,0,0,1,2.16,10.5,22.81,22.81,0,0,1-.86,6.36,19.09,19.09,0,0,1-2.52,5.43,18.71,18.71,0,0,1-4.06,4.31,20.62,20.62,0,0,1-5.5,3,24.63,24.63,0,0,1,7.3,2.52A20.66,20.66,0,0,1,731,406a21.63,21.63,0,0,1,3.92,6.65A24.11,24.11,0,0,1,736.38,421.23ZM711.93,382a13.86,13.86,0,0,0-.86-5,9.1,9.1,0,0,0-2.59-3.7,11.9,11.9,0,0,0-4.35-2.27,25.1,25.1,0,0,0-7-.79h-9.56v24.16h10.57a18.11,18.11,0,0,0,6.54-1,11.31,11.31,0,0,0,4.06-2.66,10.8,10.8,0,0,0,2.41-4A14.42,14.42,0,0,0,711.93,382Zm4.82,39.84a14.76,14.76,0,0,0-1.08-5.79,11.06,11.06,0,0,0-3.16-4.28,14.61,14.61,0,0,0-5.32-2.66,31.14,31.14,0,0,0-8.41-.94H687.55v26.46h13.66a23,23,0,0,0,6.65-.83,13.57,13.57,0,0,0,4.67-2.44,11.21,11.21,0,0,0,3.09-4A13,13,0,0,0,716.75,421.88Z"/><path class="cls-4" d="M805.13,446.9a1.92,1.92,0,0,1-.72,1.58,4.93,4.93,0,0,1-2.26.83,30.74,30.74,0,0,1-4.57.25,31.18,31.18,0,0,1-4.71-.25,4.05,4.05,0,0,1-2.09-.83,2.07,2.07,0,0,1-.61-1.58v-5.11a29.16,29.16,0,0,1-9,6.62,26.22,26.22,0,0,1-11.25,2.37,31.5,31.5,0,0,1-9.38-1.33,21.11,21.11,0,0,1-7.41-4,17.79,17.79,0,0,1-4.85-6.51,22.14,22.14,0,0,1-1.73-9.06,20.5,20.5,0,0,1,2.19-9.74,17.83,17.83,0,0,1,6.54-6.83,32.57,32.57,0,0,1,10.82-4,77.29,77.29,0,0,1,15-1.29h6.26v-3.88a20.46,20.46,0,0,0-.61-5.29,8.82,8.82,0,0,0-2-3.78A8.31,8.31,0,0,0,781,392.9a20,20,0,0,0-5.79-.72,29.76,29.76,0,0,0-8.09,1,46.56,46.56,0,0,0-6.29,2.23q-2.73,1.22-4.57,2.23a6.68,6.68,0,0,1-3,1,2.14,2.14,0,0,1-1.4-.5,3.65,3.65,0,0,1-1-1.44,9.91,9.91,0,0,1-.61-2.3,19.45,19.45,0,0,1-.22-3,13.68,13.68,0,0,1,.36-3.52,5.42,5.42,0,0,1,1.37-2.34,13.46,13.46,0,0,1,3.52-2.3,41.33,41.33,0,0,1,5.9-2.34,54.56,54.56,0,0,1,7.37-1.76,54.18,54.18,0,0,1,21.14.79,21.78,21.78,0,0,1,8.81,4.53,17.62,17.62,0,0,1,5,7.87,36.82,36.82,0,0,1,1.58,11.43Zm-17.76-27.47h-6.9a37.07,37.07,0,0,0-7.48.65,14.35,14.35,0,0,0-5,1.94,8,8,0,0,0-2.84,3.13,9.42,9.42,0,0,0-.9,4.21,8.08,8.08,0,0,0,2.55,6.33,10.19,10.19,0,0,0,7.08,2.3,13.26,13.26,0,0,0,7-1.94,29.1,29.1,0,0,0,6.51-5.68Z"/><path class="cls-4" d="M864.38,388.51q0,2.59-.14,4.24a13.19,13.19,0,0,1-.43,2.59,2.54,2.54,0,0,1-.75,1.29,1.89,1.89,0,0,1-1.19.36,3.94,3.94,0,0,1-1.29-.25L859,396.2q-.9-.29-2-.54a10.46,10.46,0,0,0-2.37-.25,8,8,0,0,0-3,.61,12.73,12.73,0,0,0-3.13,1.91,23.15,23.15,0,0,0-3.38,3.45,55.87,55.87,0,0,0-3.78,5.32v40a2,2,0,0,1-.43,1.26,3.17,3.17,0,0,1-1.47.9,12.82,12.82,0,0,1-2.77.54q-1.73.18-4.39.18t-4.39-.18a12.81,12.81,0,0,1-2.77-.54,3.16,3.16,0,0,1-1.47-.9,2,2,0,0,1-.43-1.26V382.54a2.21,2.21,0,0,1,.36-1.26,2.63,2.63,0,0,1,1.29-.9,10.37,10.37,0,0,1,2.41-.54,31.66,31.66,0,0,1,3.7-.18,33.41,33.41,0,0,1,3.81.18,8.69,8.69,0,0,1,2.34.54,2.64,2.64,0,0,1,1.19.9,2.22,2.22,0,0,1,.36,1.26v8a51.12,51.12,0,0,1,4.75-5.93,26.84,26.84,0,0,1,4.24-3.7,13.36,13.36,0,0,1,4-1.91,15.51,15.51,0,0,1,4-.54q.93,0,2,.11a19.73,19.73,0,0,1,2.23.36,14.89,14.89,0,0,1,2,.58,4,4,0,0,1,1.26.68,2.25,2.25,0,0,1,.58.79,6.35,6.35,0,0,1,.32,1.19,17.63,17.63,0,0,1,.22,2.27Q864.38,385.92,864.38,388.51Z"/><path class="cls-4" d="M922,436.47q0,1.87-.11,3.13a18.3,18.3,0,0,1-.29,2.12,6.58,6.58,0,0,1-.43,1.4,5.22,5.22,0,0,1-1.11,1.37,15.83,15.83,0,0,1-2.95,2,29.1,29.1,0,0,1-4.75,2.12,38.64,38.64,0,0,1-5.79,1.51,35.58,35.58,0,0,1-6.44.58,35,35,0,0,1-13.12-2.3,24.62,24.62,0,0,1-9.6-6.8,29.85,29.85,0,0,1-5.86-11,50.69,50.69,0,0,1-2-14.81A51.36,51.36,0,0,1,872,399.19a31.84,31.84,0,0,1,6.72-11.61,26.84,26.84,0,0,1,10.21-6.83,36.33,36.33,0,0,1,12.94-2.23,31.55,31.55,0,0,1,5.64.5,32.76,32.76,0,0,1,5.18,1.37,27.76,27.76,0,0,1,4.31,1.94,13.24,13.24,0,0,1,2.7,1.87,7.57,7.57,0,0,1,1.12,1.33,4.53,4.53,0,0,1,.5,1.4,18.55,18.55,0,0,1,.29,2.12q.11,1.26.11,3.06A16.62,16.62,0,0,1,921,398q-.72,1.69-1.87,1.69a4.42,4.42,0,0,1-2.59-1q-1.37-1-3.24-2.23a24.22,24.22,0,0,0-4.46-2.23,17.06,17.06,0,0,0-6.18-1,12.29,12.29,0,0,0-10.79,5.43q-3.74,5.43-3.74,15.93a39.89,39.89,0,0,0,.93,9.13,19.41,19.41,0,0,0,2.77,6.62,11.66,11.66,0,0,0,4.6,4,14.69,14.69,0,0,0,6.44,1.33,16.8,16.8,0,0,0,6.44-1.11A26.17,26.17,0,0,0,914,432q2-1.37,3.38-2.48a4,4,0,0,1,2.3-1.11,1.63,1.63,0,0,1,1.08.36,2.55,2.55,0,0,1,.68,1.33,16.42,16.42,0,0,1,.4,2.48Q922,434.1,922,436.47Z"/><path class="cls-4" d="M999.21,414a49,49,0,0,1-2.16,15,31.57,31.57,0,0,1-6.54,11.65,29.09,29.09,0,0,1-11,7.55A41.29,41.29,0,0,1,964,450.78a42.34,42.34,0,0,1-14.88-2.37,26.77,26.77,0,0,1-10.5-6.9,28.34,28.34,0,0,1-6.18-11.15,51.86,51.86,0,0,1-2-15.1,48.59,48.59,0,0,1,2.19-15,31.56,31.56,0,0,1,6.58-11.65,29.35,29.35,0,0,1,11-7.51,41,41,0,0,1,15.42-2.66,43.18,43.18,0,0,1,15,2.34A26.16,26.16,0,0,1,991,387.65a28.61,28.61,0,0,1,6.15,11.15A52.18,52.18,0,0,1,999.21,414Zm-18.62.72a47,47,0,0,0-.75-8.74,20.55,20.55,0,0,0-2.55-6.94,12.78,12.78,0,0,0-4.78-4.6,15.36,15.36,0,0,0-7.51-1.65,15.9,15.9,0,0,0-7,1.47,12.67,12.67,0,0,0-5,4.31,20.66,20.66,0,0,0-2.91,6.83,38.68,38.68,0,0,0-1,9.1,44.92,44.92,0,0,0,.79,8.74,21.62,21.62,0,0,0,2.55,6.94,12.16,12.16,0,0,0,4.78,4.57,15.69,15.69,0,0,0,7.48,1.62,16.06,16.06,0,0,0,7.12-1.47,12.75,12.75,0,0,0,5-4.28,19.73,19.73,0,0,0,2.88-6.8A40.12,40.12,0,0,0,980.58,414.69Z"/><path class="cls-4" d="M1074.35,446.69A2.35,2.35,0,0,1,1074,448a2.63,2.63,0,0,1-1.22.9,8.39,8.39,0,0,1-2.34.5q-1.48.14-3.63.14t-3.74-.14a8.81,8.81,0,0,1-2.34-.5,2.87,2.87,0,0,1-1.29-.9,2.19,2.19,0,0,1-.4-1.33v-7.12a41.22,41.22,0,0,1-10.39,8.27,27.25,27.25,0,0,1-24.45.11,23.67,23.67,0,0,1-8.27-7.66,33.22,33.22,0,0,1-4.64-11.25,62,62,0,0,1-1.44-13.55,59.46,59.46,0,0,1,1.83-15.39,34.82,34.82,0,0,1,5.36-11.65,23.76,23.76,0,0,1,8.77-7.41,27,27,0,0,1,12.08-2.59,21.57,21.57,0,0,1,9.78,2.19,34.8,34.8,0,0,1,8.7,6.44V352.34a2.23,2.23,0,0,1,.4-1.29,3,3,0,0,1,1.44-1,12.34,12.34,0,0,1,2.77-.61,44.69,44.69,0,0,1,8.77,0,11.69,11.69,0,0,1,2.73.61,3.22,3.22,0,0,1,1.44,1,2.1,2.1,0,0,1,.43,1.29Zm-18-42.86a39.77,39.77,0,0,0-7.44-7.48,12.47,12.47,0,0,0-7.44-2.59,10.43,10.43,0,0,0-6.08,1.76,12.86,12.86,0,0,0-4.1,4.71,25.08,25.08,0,0,0-2.3,6.58,36.5,36.5,0,0,0-.75,7.44,46.71,46.71,0,0,0,.65,7.84,24.52,24.52,0,0,0,2.12,6.8,12.88,12.88,0,0,0,3.92,4.78,10.16,10.16,0,0,0,6.18,1.8,12.33,12.33,0,0,0,3.63-.54,13.79,13.79,0,0,0,3.6-1.76,24.09,24.09,0,0,0,3.78-3.2q1.94-2,4.24-4.85Z"/><path class="cls-4" d="M1151.8,412.74a7,7,0,0,1-1.47,4.89,5.28,5.28,0,0,1-4.06,1.58h-39a26.64,26.64,0,0,0,1,7.44,14.17,14.17,0,0,0,3.09,5.68,13.46,13.46,0,0,0,5.46,3.56,23.39,23.39,0,0,0,8,1.22,45.06,45.06,0,0,0,8.34-.68,55.24,55.24,0,0,0,6.22-1.51q2.62-.83,4.35-1.51a8.09,8.09,0,0,1,2.8-.68,2.12,2.12,0,0,1,1.08.25,1.88,1.88,0,0,1,.72.9,6,6,0,0,1,.4,1.83q.11,1.19.11,3,0,1.58-.07,2.7a17.16,17.16,0,0,1-.22,1.91,4.59,4.59,0,0,1-.43,1.33,5,5,0,0,1-.75,1,8.75,8.75,0,0,1-2.55,1.37,40.36,40.36,0,0,1-5.32,1.69,73.06,73.06,0,0,1-7.41,1.44,61.67,61.67,0,0,1-8.92.61,47.19,47.19,0,0,1-15-2.16,26.68,26.68,0,0,1-10.75-6.54,27.21,27.21,0,0,1-6.44-11.07,52,52,0,0,1-2.12-15.68,49.82,49.82,0,0,1,2.23-15.42,32.33,32.33,0,0,1,6.47-11.65,27.84,27.84,0,0,1,10.32-7.3,35.51,35.51,0,0,1,13.7-2.52,35.88,35.88,0,0,1,13.77,2.37,24.83,24.83,0,0,1,9.38,6.58,26.54,26.54,0,0,1,5.39,10,43.39,43.39,0,0,1,1.73,12.51Zm-17.55-5.18q.22-7.62-3.06-12t-10.1-4.35a13.12,13.12,0,0,0-6,1.29,12.3,12.3,0,0,0-4.24,3.49,15.92,15.92,0,0,0-2.59,5.18,25.72,25.72,0,0,0-1,6.36Z"/></g></svg>